<?xml version="1.0" standalone="no"?>
<!DOCTYPE svg PUBLIC "-//W3C//DTD SVG 20010904//EN"
 "http://www.w3.org/TR/2001/REC-SVG-20010904/DTD/svg10.dtd">
<svg version="1.0" xmlns="http://www.w3.org/2000/svg"
 width="282.000000pt" height="282.000000pt" viewBox="0 0 282.000000 282.000000"
 preserveAspectRatio="xMidYMid meet">
<metadata>
Created by potrace 1.14, written by Peter Selinger 2001-2017
</metadata>
<g transform="translate(0.000000,282.000000) scale(0.100000,-0.100000)"
fill="#000000" stroke="none">
<path d="M20 1405 l0 -1405 190 0 190 0 0 488 c0 274 -9 759 -20 1111 -11 343
-19 625 -17 627 2 2 206 -497 454 -1109 l450 -1112 149 -3 149 -2 450 1108
450 1108 3 -65 c2 -36 -4 -280 -12 -542 -9 -261 -16 -730 -16 -1042 l0 -567
190 0 190 0 0 1405 0 1405 -246 -2 -246 -3 -450 -1125 c-247 -619 -453 -1128
-457 -1132 -3 -4 -211 503 -461 1127 l-455 1135 -242 0 -243 0 0 -1405z"/>
</g>
</svg>
